<?xml version="1.0" standalone="no"?>
<!DOCTYPE svg PUBLIC "-//W3C//DTD SVG 20010904//EN"
 "http://www.w3.org/TR/2001/REC-SVG-20010904/DTD/svg10.dtd">
<svg version="1.0" xmlns="http://www.w3.org/2000/svg"
 width="512.000000pt" height="512.000000pt" viewBox="0 0 512.000000 512.000000"
 preserveAspectRatio="xMidYMid meet">
<metadata>
Created by potrace 1.14, written by Peter Selinger 2001-2017
</metadata>
<g transform="translate(0.000000,512.000000) scale(0.100000,-0.100000)"
fill="#000000" stroke="none">
<path d="M2350 5109 c-597 -49 -1167 -314 -1596 -743 -1001 -1002 -1001 -2620
0 -3622 379 -378 827 -611 1381 -716 109 -21 149 -23 430 -23 340 0 407 8 662
75 880 234 1579 933 1813 1813 67 255 75 322 75 662 0 281 -2 321 -23 430
-105 554 -338 1002 -716 1381 -536 535 -1270 804 -2026 743z m1456 -610 c369
-65 645 -345 705 -714 14 -91 7 -243 -17 -335 -22 -89 -92 -233 -147 -305 -25
-33 -162 -175 -304 -316 -283 -281 -352 -335 -497 -388 -120 -43 -198 -54
-339 -48 -138 5 -207 22 -320 74 l-78 37 -96 -96 -96 -97 36 -80 c55 -119 77
-224 77 -361 0 -187 -51 -351 -154 -493 -65 -91 -578 -597 -654 -645 -152 -98
-306 -137 -501 -130 -105 5 -142 11 -221 36 -368 121 -607 468 -587 852 9 166
55 304 150 445 52 78 554 580 632 632 262 175 586 202 858 69 l66 -32 98 98
97 97 -37 78 c-61 131 -72 187 -72 368 1 154 2 164 33 255 61 176 98 225 392
523 146 148 292 289 325 314 183 138 434 201 651 162z"/>
<path d="M3534 4071 c-28 -10 -68 -30 -90 -44 -21 -14 -156 -144 -300 -288
-228 -231 -264 -272 -287 -325 -31 -71 -43 -157 -32 -239 l7 -56 92 89 c80 78
99 91 142 100 135 29 254 -66 254 -203 0 -69 -24 -113 -107 -197 -42 -43 -73
-81 -69 -85 4 -4 53 -8 109 -8 91 0 109 4 167 30 58 26 94 58 333 294 147 146
278 284 291 306 44 76 59 139 54 239 -3 76 -9 102 -35 159 -42 89 -121 168
-210 210 -60 28 -79 32 -168 34 -78 2 -111 -2 -151 -16z"/>
<path d="M1745 2281 c-28 -10 -68 -29 -90 -43 -22 -14 -157 -145 -301 -289
-313 -317 -319 -326 -319 -500 0 -101 1 -108 37 -180 46 -93 122 -168 215
-212 63 -30 76 -32 173 -32 174 0 181 5 508 329 317 314 332 336 340 483 2 45
1 98 -2 118 l-7 37 -93 -90 c-80 -78 -99 -91 -142 -100 -135 -29 -254 66 -254
203 0 68 20 106 109 198 75 78 80 85 59 91 -48 13 -183 5 -233 -13z"/>
</g>
</svg>
